/* XPM */
static char *_764114b86d74ed4fc54115e21bcafb2[] = {
/* columns rows colors chars-per-pixel */
"16 16 186 2 ",
"   c None",
".  c #020C1D",
"X  c #020D1E",
"o  c #030D1E",
"O  c #030E1F",
"+  c #05101E",
"@  c #030F20",
"#  c #040F20",
"$  c #021122",
"%  c #031122",
"&  c #051121",
"*  c #071320",
"=  c #041023",
"-  c #061222",
";  c #051224",
":  c #051327",
">  c #051425",
",  c #061426",
"<  c #071626",
"1  c #081627",
"2  c #031628",
"3  c #051429",
"4  c #071528",
"5  c #061628",
"6  c #061629",
"7  c #071729",
"8  c #04172B",
"9  c #07172B",
"0  c #03162C",
"q  c #0B172A",
"w  c #07182B",
"e  c #06192D",
"r  c #05182E",
"t  c #0B1A2A",
"y  c #0D1928",
"u  c #0E1A29",
"i  c #0F1D2B",
"p  c #081B2D",
"a  c #0A1A2D",
"s  c #091B2F",
"d  c #0C1B2D",
"f  c #111E2E",
"g  c #051730",
"h  c #071931",
"j  c #051A30",
"k  c #071A31",
"l  c #061B31",
"z  c #061B33",
"x  c #071C30",
"c  c #041C33",
"v  c #071B34",
"b  c #071C34",
"n  c #071C36",
"m  c #0A1D30",
"M  c #0B1F31",
"N  c #081C33",
"B  c #091E32",
"V  c #0A1F32",
"C  c #0C1E30",
"Z  c #091F34",
"A  c #081E35",
"S  c #091F35",
"D  c #081F36",
"F  c #101E31",
"G  c #072137",
"H  c #082035",
"J  c #092037",
"K  c #0F2034",
"L  c #0C2137",
"P  c #0F2136",
"I  c #0F2336",
"U  c #07203A",
"Y  c #06213B",
"T  c #05243A",
"R  c #06203C",
"E  c #04253C",
"W  c #09213B",
"Q  c #09233C",
"!  c #0A223C",
"~  c #08243C",
"^  c #09263F",
"/  c #112032",
"(  c #112234",
")  c #132536",
"_  c #102538",
"`  c #11273C",
"'  c #15293B",
"]  c #062240",
"[  c #072342",
"{  c #042640",
"}  c #072642",
"|  c #082341",
" . c #082142",
".. c #092342",
"X. c #092440",
"o. c #082546",
"O. c #092747",
"+. c #052A41",
"@. c #082944",
"#. c #092944",
"$. c #0B2A44",
"%. c #082B46",
"&. c #092748",
"*. c #0A274A",
"=. c #072948",
"-. c #082B48",
";. c #092B49",
":. c #0A294B",
">. c #0C2B48",
",. c #0B2C48",
"<. c #0A294F",
"1. c #0A2F4E",
"2. c #102940",
"3. c #07354F",
"4. c #183249",
"5. c #0B2D55",
"6. c #072C58",
"7. c #092F59",
"8. c #0B2E58",
"9. c #073151",
"0. c #0B3252",
"q. c #093357",
"w. c #093457",
"e. c #0C355A",
"r. c #09325F",
"t. c #0A355C",
"y. c #0B365C",
"u. c #0C375C",
"i. c #0E3E58",
"p. c #143552",
"a. c #153752",
"s. c #103C5E",
"d. c #2F3B49",
"f. c #0B3363",
"g. c #073C61",
"h. c #0E3A62",
"j. c #0D376A",
"k. c #0D376B",
"l. c #163D60",
"z. c #103C67",
"x. c #0B3972",
"c. c #0D3C73",
"v. c #0F3E72",
"b. c #324152",
"n. c #324252",
"m. c #364657",
"M. c #3A4B5C",
"N. c #1C476B",
"B. c #0E4473",
"V. c #0F4775",
"C. c #094A7C",
"Z. c #194572",
"A. c #15477C",
"S. c #13537C",
"D. c #17527C",
"F. c #3C4F60",
"G. c #395065",
"H. c #3D5570",
"J. c #3F5A75",
"K. c #3F5D77",
"L. c #3E5D7F",
"P. c #425366",
"I. c #43576B",
"U. c #405A70",
"Y. c #42627D",
"T. c #0D4D8F",
"R. c #154A89",
"E. c #144F9B",
"W. c #195891",
"Q. c #12569A",
"!. c #1E569C",
"~. c #3E6684",
"^. c #1557A8",
"/. c #405F80",
"(. c #446B8B",
"). c #43688C",
"_. c #406E93",
"`. c #4A77A7",
"'. c #4F76A4",
"]. c #4A76AA",
"[. c #2374C7",
"{. c #4F89BB",
"}. c #6799D2",
"|. c #6AA5E0",
" X c #6FACE6",
".X c #6DB7ED",
/* pixels */
"          C q a L F 4.          ",
"        q # # e k r H `         ",
"      & @ # n D h h Z 4 V       ",
"    4 O : n e.o. .X.! n } H     ",
"  V % O : o.*.<.5.:.=.u.Y Y i.  ",
"  > 0 r r  .7.j.k.f.V.3.%.+.3.  ",
"P O . 0 ] 7.x.E.^.T.T.g.9.} E / ",
"d d.b.P.H./.`.|..X{.~.~.K.G.b.y ",
"y m.M.I.J./.]. X}.'.).(.Y.H.F.f ",
"V $ k D ] 6.Q.[.!.c.f.y.=.c < H ",
"_ e n Q X.B.W.    Z.h.u.-.w - t ",
"' a V n q.D.  R.A.  l.0.~ > + i ",
"  t 4 -.s.    v.z.N.  p.H - *   ",
"  ( X.S.          >.    ` > )   ",
"    a.    Z ! >.%.Z V     )     ",
"          Q %.1.%.H x           "
};
