/* XPM */
static char *b75a6e0a6b53486d80722b1b4559a85e[] = {
/* columns rows colors chars-per-pixel */
"32 32 174 2 ",
"   c None",
".  c #010917",
"X  c #030D1C",
"o  c #06111F",
"O  c #08121F",
"+  c #030E21",
"@  c #051324",
"#  c #091524",
"$  c #0A1927",
"%  c #05162A",
"&  c #09172A",
"*  c #06192C",
"=  c #0B1A2C",
"-  c #061B33",
";  c #091D33",
":  c #061D3B",
">  c #081E3A",
",  c #101F31",
"<  c #062137",
"1  c #0B2135",
"2  c #07223D",
"3  c #09223C",
"4  c #132335",
"5  c #13263B",
"6  c #192B3D",
"7  c #162A3D",
"8  c #072443",
"9  c #092542",
"0  c #062943",
"q  c #0A2944",
"w  c #09264A",
"e  c #0B2C4C",
"r  c #06284B",
"t  c #152C42",
"y  c #1A2E41",
"u  c #102D48",
"i  c #05334D",
"p  c #0D304B",
"a  c #1B3145",
"s  c #12314D",
"d  c #1B344A",
"f  c #1C384E",
"g  c #0A2D52",
"h  c #0B2E5A",
"j  c #062C5C",
"k  c #063452",
"l  c #0B3354",
"z  c #0B325B",
"x  c #073B5B",
"c  c #0B3A5D",
"v  c #063B56",
"b  c #133454",
"n  c #143A55",
"m  c #1D3951",
"M  c #10365A",
"N  c #11395C",
"B  c #1B3D5B",
"V  c #243344",
"C  c #233749",
"Z  c #203B53",
"A  c #0C3563",
"S  c #0C3A63",
"D  c #0D3B6C",
"F  c #123D65",
"G  c #143F6F",
"H  c #0D3B74",
"J  c #113E74",
"K  c #17405F",
"L  c #34404D",
"P  c #20415B",
"I  c #2C475D",
"U  c #36475A",
"Y  c #394B5E",
"T  c #0D4363",
"R  c #0C446B",
"E  c #1C4363",
"W  c #11426A",
"Q  c #1A4469",
"!  c #1C4B66",
"~  c #0F4274",
"^  c #0D417C",
"/  c #0C497A",
"(  c #154A73",
")  c #13437C",
"_  c #194B7B",
"`  c #114B7B",
"'  c #09507F",
"]  c #10517D",
"[  c #1C547D",
"{  c #214764",
"}  c #234965",
"|  c #214C74",
" . c #275A7F",
".. c #24547B",
"X. c #51606F",
"o. c #4F657C",
"O. c #526373",
"+. c #0E4185",
"@. c #0C4489",
"#. c #124483",
"$. c #104F86",
"%. c #13488F",
"&. c #184D88",
"*. c #1C4D81",
"=. c #0A5C8E",
"-. c #115281",
";. c #10518E",
":. c #105D8C",
">. c #154E9A",
",. c #115391",
"<. c #175599",
"1. c #1A5292",
"2. c #265687",
"3. c #2A5B90",
"4. c #186898",
"5. c #186397",
"6. c #1351A0",
"7. c #1C5BAF",
"8. c #145FA4",
"9. c #1A5DB8",
"0. c #135EBD",
"q. c #225EA0",
"w. c #1460A1",
"e. c #1A62A2",
"r. c #176AB9",
"t. c #186FBC",
"y. c #4E6E8D",
"u. c #536B83",
"i. c #527090",
"p. c #5A7C97",
"a. c #6A7885",
"s. c #677A8B",
"d. c #6B7A89",
"f. c #657F94",
"g. c #1B60C2",
"h. c #1B73C2",
"j. c #206BC6",
"k. c #247BD3",
"l. c #61819E",
"z. c #6A859C",
"x. c #718496",
"c. c #718B9E",
"v. c #7A8E9E",
"b. c #6687A3",
"n. c #6589A8",
"m. c #6A8CA9",
"M. c #758BA0",
"N. c #7D96AB",
"B. c #3D84DB",
"V. c #2F9FEC",
"C. c #3092E5",
"Z. c #7B9EC4",
"A. c #6A98D6",
"S. c #438FE4",
"D. c #4B9FEF",
"F. c #4CADF9",
"G. c #68A4E3",
"H. c #71A9E3",
"J. c #6EB5E5",
"K. c #809EB3",
"L. c #92A2AD",
"P. c #89A1B3",
"I. c #8BA8BE",
"U. c #8EA7C0",
"Y. c #8EA9C2",
"T. c #87A8C8",
"R. c #8DAFCA",
"E. c #83A6CA",
"W. c #93ACC3",
"Q. c #8BB6D9",
"!. c #C2DCF3",
"~. c #CCEAF7",
"^. c #C6E5F9",
"/. c #C6F1F9",
/* pixels */
"                        V 5 t 1 5 a a                           ",
"                    4 @ X X @ + - ; @ * 5 }                     ",
"                4 o @ X + + @ * ; > - @ % 3 s P                 ",
"              = % X + + + + * q - % @ ; ; = 3 1 y               ",
"          { @ . @ X % + + + % - - % & ; - - & @ @ =             ",
"          9 X . X @ + + - g w > > * - ; ; ; % & X - Q           ",
"        = % @ . + > % = h ] g > 2 > ; > q > ; @ : v - 1         ",
"      4 @ X X @ + % % 9 ~ w - w g 9 q e 9 > % : l 2 . < !       ",
"    f X + X X + + @ - j g > w g h w g e 2 > 0 R w - @ i T       ",
"    p @ % @ X X % - 8 h 8 w w h h g g r : l / S 8 @ * k i K     ",
"    * @ < - % + % % - : w h h A A A h r A 5.l z i - < i i q     ",
"  4 . o @ * - 2 % - > g A A J ) J H A D 5.~ 8 r c q - i v k m   ",
"  & X X X o & > 8 : w h h J #.%.%.+.@.,.~ / x k R e * k T < ,   ",
"  > @ o X X + ; : g A H H +.>.9.g.0.r.H / =.R R R 0 - k 2 @ #   ",
"Z @ X # @ & = > 9 b w A ) <.j.D.F.V.t.,.` ' W c k s 5 < 1 # o a ",
"6 . V L.U O.L.s.u.M.M.i.U.E.G.^./.J.Q.R.l.z.K.u.l.c.x.Y L.L . 6 ",
"4 . X.P.d.O.L.x.o.N.N.i.Y.Z.H.~.!.A.E.W.n.m.I.p.z.v.v.s.P.d.O 4 ",
"6 X = 3 , = ; 3 e B z A J 6.C.S.B.7.#.) J F ( ( F b p q q = # 6 ",
"a o . X @ 9 3 8 > w g h H h.k.    %.) ) A g c S e e 8 < * % X d ",
"d * % % ; ; 3 9 > e w j 8.e.q.    3.J A A z z S q 2 % % % * * 7 ",
"} , o * * ; q 3 2 9 w $.w.*.        2.A W S S l p q @ % @ % @ a ",
"  $ % * ; 3 < ; 9 : ` $._             | S S p S c 3 % = @ o o   ",
"  4 * 3 3 3 - < - A 4.[       >.&.      Q b g R p 2 @ % O . O   ",
"  6 @ * * % * * A S N       1.#.G _       F e q < % @ @ O O =   ",
"    = @ @ * @ i R M       _ J ) S W ..      n q 3 * @ o X O 6   ",
"    4 $ $ @ q c p         A A R S M N 2.      n q 1 @ @ . #     ",
"    C @ o 3 =.]                     e q         q ; O @ # 7     ",
"      , 3 c ]                     u 9 q 5         ; = O 5       ",
"        n 1 E       ; % 3 3 q s s q 3 3 * 1       I , O m       ",
"        } B       5 ; ; 3 3 9 l q 3 1 % = @ K       C a         ",
"                e 3 3 3 q q k p 3 q < * * % q !                 ",
"                                                                "
};
