/* XPM */
static char *_6fa76a28ff14816d48accb9a7f0f9f7[] = {
/* columns rows colors chars-per-pixel */
"64 64 230 2 ",
"   c None",
".  c #010714",
"X  c #020916",
"o  c #030C1C",
"O  c #05111E",
"+  c #030E21",
"@  c #051224",
"#  c #091524",
"$  c #05152A",
"%  c #08172A",
"&  c #06192D",
"*  c #091A2C",
"=  c #081927",
"-  c #051632",
";  c #061B33",
":  c #091D33",
">  c #061D3B",
",  c #081E3A",
"<  c #101F2F",
"1  c #042136",
"2  c #092035",
"3  c #06223B",
"4  c #0A233C",
"5  c #0B293E",
"6  c #05293F",
"7  c #122335",
"8  c #142739",
"9  c #15293D",
"0  c #192A3C",
"q  c #0A202F",
"w  c #041E44",
"e  c #062443",
"r  c #092542",
"t  c #042A43",
"y  c #0B2A44",
"u  c #06244B",
"i  c #09254A",
"p  c #072B4C",
"a  c #0A2C4B",
"s  c #162E44",
"d  c #04344D",
"f  c #0C324D",
"g  c #023047",
"h  c #1C344C",
"j  c #193449",
"k  c #062B52",
"l  c #0A2C53",
"z  c #0A2E5B",
"x  c #062755",
"c  c #053553",
"v  c #0B3254",
"b  c #063954",
"n  c #0B335B",
"m  c #063A5B",
"M  c #0B3A5C",
"N  c #07365A",
"B  c #123554",
"V  c #12355C",
"C  c #123B5C",
"Z  c #1D3D5B",
"A  c #193954",
"S  c #21384B",
"D  c #233C52",
"F  c #253E56",
"G  c #303D4C",
"H  c #072E64",
"J  c #0B3363",
"K  c #0C3B64",
"L  c #0B356A",
"P  c #0C3D6B",
"I  c #063964",
"U  c #113D69",
"Y  c #0E3B73",
"T  c #0E3C7B",
"R  c #0B3775",
"E  c #113E76",
"W  c #1C415B",
"Q  c #0B415E",
"!  c #2A445B",
"~  c #294259",
"^  c #33495D",
"/  c #0D436B",
"(  c #0C4566",
")  c #124363",
"_  c #1A4564",
"`  c #11446C",
"'  c #1B466C",
"]  c #164C6E",
"[  c #0D4474",
"{  c #0C447B",
"}  c #0D4B7C",
"|  c #0C4C74",
" . c #134B71",
".. c #11427C",
"X. c #104C7A",
"o. c #164877",
"O. c #0D547C",
"+. c #14537C",
"@. c #2B4A66",
"#. c #264967",
"$. c #324D65",
"%. c #334D68",
"&. c #29516F",
"*. c #34526D",
"=. c #3C556A",
"-. c #264D71",
";. c #285479",
":. c #375976",
">. c #3E627E",
",. c #465767",
"<. c #415E75",
"1. c #45637A",
"2. c #526578",
"3. c #0C3C84",
"4. c #0F3E88",
"5. c #0D4886",
"6. c #124483",
"7. c #134C82",
"8. c #134C8A",
"9. c #174A8A",
"0. c #0D5385",
"q. c #0C598C",
"w. c #135685",
"e. c #0D479D",
"r. c #124B93",
"t. c #134D9B",
"y. c #134790",
"u. c #0E5B99",
"i. c #115194",
"p. c #155899",
"a. c #275A87",
"s. c #345F83",
"d. c #2B5E92",
"f. c #0B6194",
"g. c #096598",
"h. c #176597",
"j. c #17638C",
"k. c #3B6483",
"l. c #386688",
"z. c #376A97",
"x. c #316B94",
"c. c #144EA6",
"v. c #0C56A6",
"b. c #1456A7",
"n. c #1A5BB5",
"m. c #0C48A0",
"M. c #196CA5",
"N. c #1873A7",
"B. c #1775B5",
"V. c #1369B5",
"C. c #2968A7",
"Z. c #2872B0",
"A. c #4A6B83",
"S. c #49678A",
"D. c #576E85",
"F. c #48728E",
"G. c #4A6D90",
"H. c #437395",
"J. c #577793",
"K. c #597285",
"L. c #667988",
"P. c #697F93",
"I. c #4279A4",
"U. c #417DB1",
"Y. c #1968C7",
"T. c #1A77C8",
"R. c #1B6ED9",
"E. c #2675D7",
"W. c #397CD5",
"Q. c #2379C9",
"!. c #2D7CE2",
"~. c #115FD0",
"^. c #1E86BA",
"/. c #2185B9",
"(. c #5D829D",
"). c #6B879A",
"_. c #768998",
"`. c #7A8A96",
"'. c #4D82A5",
"]. c #6A8DA9",
"[. c #768EA1",
"{. c #7893A7",
"}. c #698EB2",
"|. c #7999B2",
" X c #6E92B0",
".X c #7FA3BA",
"XX c #1B8BD3",
"oX c #298ED1",
"OX c #36B6DF",
"+X c #2F84E5",
"@X c #2C93E6",
"#X c #3296F2",
"$X c #538DD5",
"%X c #598CCB",
"&X c #689ACE",
"*X c #5DADDB",
"=X c #5196EE",
"-X c #459CF7",
";X c #4AABF3",
":X c #47C4F7",
">X c #63C3FC",
",X c #8698A7",
"<X c #809CB5",
"1X c #88A4B8",
"2X c #95A6B4",
"3X c #95A1AC",
"4X c #A6B2BE",
"5X c #89A8C6",
"6X c #9DB4C5",
"7X c #92B5D1",
"8X c #A7BBC9",
"9X c #B3BEC7",
"0X c #A3BCD1",
"qX c #96BAEA",
"wX c #85B3E8",
"eX c #BCCBD6",
"rX c #A9C4D9",
"tX c #AEC9E7",
"yX c #9CF0FB",
"uX c #A4D6F5",
"iX c #C5D3DD",
"pX c #C9DBE8",
"aX c #D4DDE4",
"sX c #DBE4EA",
"dX c #D7E8F2",
"fX c #CFEFF8",
"gX c #E8EFF2",
"hX c #EEF4F6",
"jX c #E7FDFA",
"kX c #F7FBFB",
/* pixels */
"                                                      *.1.@.Z Z ] @.<.k.                                                        ",
"                                              %.S 9 % $ @ ; O O % X % : % s D *.                                                ",
"                                        =.h : + o X . o $ & o O @ @ v & X @ o % 2 S k.                                          ",
"                                    <.s % X . o o o o o O o o $ 6 : r # + * # + X 2 B _ %.                                      ",
"                                  j o o @ o X o + o o o + @ o $ i % , v + y 2 o o * K 5 2 W l.                                  ",
"                              ! * . o X % o o $ $ @ + + + * @ ; t + 3 , @ 2 @ O @ % 2 * y v s !                                 ",
"                            s & ; X X o + @ o + + $ + o @ : B y t * % + @ @ % * 5 % % * y 2 2 % j k.                            ",
"                          7 X o 3 & o o X $ o o + o + + + ; v ; ; @ $ @ + @ & a 4 : : - * 5 4 : : 8 $.                          ",
"                      >.* X X X $ > X o & $ + o + + + + @ , - $ 3 + & @ - 2 : 5 ; ; & * & @ % % * o + !                         ",
"                    z.v X X o X o o o o @ + $ + + + + ; % - : $ a * $ $ # : - * ; % $ * 3 @ @ @ * X X + F                       ",
"                    ` & X X X o o o + + o o $ + + + , e w % - , i % $ $ : : % % ; : $ ; ; # @ % o X o @ v z.                    ",
"                  B e @ $ O X o o o @ $ + + + & % w r / w.% ; ; 3 ; , - - ; - r 3 ; : 2 # @ 2 $ X + @ t h.f $.                  ",
"                j O o i ; o o o o o % 8 + + + - i a U B.U : r , i y : r r % ; i : r B - * 5 ; X + $ u N m @ @ !                 ",
"              ~ o . @ & o o o o o * B $ ; @ @ y a U M.7.w r , , 4 , - , - - : 4 5 B , $ y - o + $ K j.p O X X 5                 ",
"            :.% X @ + X X $ o o + w - + - & - a K h.P - - - 8 i l y , - , i r a B a : & : + + - v O.N & X X O 1 _               ",
"            8 . @ r + X o o @ @ o + + + @ $ i w w.P - - - , l z U v i > f B B a y ; 5 ; % $ - n v > > @ X O & g b l.            ",
"          ~ o . ; + X o o o o $ + o + + $ $ i z z r , - r i V l n l i a l v C > , 4 e ; & - N } m > e @ O @ 1 b b ]             ",
"          y o X X X X o X o o o + $ + - $ ; { L > V , w i i l i n i i i i n a > r i > $ > / h./ e > e & = & d Q b Q &.          ",
"        D t $ X o o $ o o o o + + ; ; > $ K | v B > , i i i l V z l a i a l i r , > - w P 0./ J e ; $ $ @ $ d Q Q 6 d           ",
"        s m $ X t 1 ; o o + o + + e , * - i e a i , l w i i l J K z z U a i a l w > e X.N.P u [ p ; @ o O & d Q d g g W         ",
"      ~ & & o X d t o % + o o + @ , - - - - r > , l l l i x n K J K z x l n n i > u } oXw.$ p O.m 1 + % 4 ; d d d g g 5         ",
"      j $ O = o 1 ; 1 t $ + $ % + + + - - , w - w K V x J z L Y Y Y z l J P l w x 6.N.h.> - p / b p 5 5 : 1 d b d d 6 1 #.      ",
"      # o X @ O o & ; & + e v - + $ @ - > > r l K E z V ..E Y ..E E L U L n u x 7.oXh.a - > a c m m B % % e c d d d d Q _       ",
"    ~ X . X X o O $ & @ o p n @ > - - i > > B l z z z J T Y Y 9.T R Y E R z H i.M.B.[ ( v ; e N m m f y @ ; d c c Q O.1 q       ",
"    9 . X X X + X o + @ + a 4 $ e > , > ; e a i n x J E T 6.6.9.9.T r.T H R m.M.P L P q./ 3 t m ( / ) ; $ ; d Q Q | d o O ~     ",
"    % X + o % % o o o o + $ ; ; 3 a e > a Y J z x P L 6.8.4.y.t.t.t.y.T 3.n.B.I H N } g.| t p I ( / b 3 & $ 6 m b d & O # 9     ",
"  *.# l @ * 2 X X o o o o + + - y r a a n 7.7.l Y T ..T y.t.c.b.n.c.m.c.Y.T.6.x { 0.q.q.0.t m +.O.I p > $ $ 6 X.b t = @ o =     ",
"  #.e 3 o @ o X o o o + + $ $ s ; - a n M U P J 8.L R 9.t.n.n.E.E.Y.~.R.XXu.{ L 0.0.q.g.q.N N O.( m v 1 ; & M d t 1 O O o o $.  ",
"  F & . . . . X o $ o + % + , : $ > z z i w l Y { 8.8.p.b.Y.+X-X#X#X#X@XY.v.v.P 0.0.{ g.| u ) N N k p e 3 f y & ; & = O O X D   ",
"  s X X o X . . - + @ - $ - - @ , w x w w w H J J { i.c.Y.+X-X>X>X:X:XoXT.V.V.R { P J O.N n p k p t a t p ; ; & $ * # . X . S   ",
"  8 # O @ S L.,X%.+ ~ _._.$.L.K.@. X[.P.[.S.z G.|.}.}.&XoX-XqXfXfXyX:X*XwX&X/.{.|.s.l.1X].(.).1.*.{.[.).).G % F _.`.~ . X . <   ",
"  % X X . ,.iXhX).+ < 9XkX9X8XP.r 2XsX,.,XgXS.G.hX0X5XgX&XqXkXhXjXkXwX%XiXaXrXpXpX-.s.sXeX|.{.F.#.aX0X*.eXiXj ,.iXhXL.o o X 7   ",
"  @ X X 0 9X6XiXaX^ : 4X2XsXhXD.w 2XsX:.{.hXJ.l.hX0X7XpXW.tXkXjXjXkXqX$XrXeXpX6XaX;.;.sXiX<X{.J.Z aX8X#.9XaX=.9X4XiXsX~ . X O   ",
"D.# O o ,.,X:.(.3XL.$.,XD.2.2X*.Z {.2X|.<XD.V J.5X}.z.5X$X;XuXdXfXqXW.%X5X}.}.|.5XI.z.5X1X|.1XJ.k.1X,X{.{.=.<.,X:.].2X2.= X * 2.",
"A.O X . X @ f 3 o + @ @ : & r ; - , a _ J z z J L T T e.E.;X;X=X=X+XY.p.4.T R J L U P K P +.K K X.p 3 e t r & & M a o o O # = 1.",
"A.% X o o ; ; O @ + o + + @ & ; v i K l l i i H J R 5.Y.#X@XR.E.E.E.n.t.6.T T T Y J l n I / | / b n M > I t 1 a f @ O $ O * # =.",
"(.2 O O O o X o o O ; , : ; r v a r w w i u n L z H v.XX+X!.n.    Z.t.4.3.6.7.Y J z n x v ` X.l a C M f v 1 3 3 1 o & 1 . X 2 >.",
"  * . . X X o X @ : ` C 5 l l - & > i a a K K z H y.XXE.Q.E.        9.Y T 7.X.P L J n u l ` K l e r 3 i y 6 3 3 1 @ = = . o 5 F.",
"  2 * X X 1 # # 4 : : & $ l 3 - , , B a u l u x T T.oXp.p.Z.        I.9...L L J J P z k l J N ` i r a ; ; $ @ % 1 = = $ ; = & A.",
"  j ; 6 & 1 $ - a + + & & 5 B , , y a a p e u L v.Q.p.Y d.            z.T L z n L K n v l K ` N a a > > & o + @ O O O ; p = q   ",
"  W 5 & O X o a 2 # & & 4 C i 4 4 - r i ; e H u.V.B.J ;.                z...z K K U K V v K N n a a v e $ o + 4 * X - r o X 9   ",
"  #.8 X X X & y @ & & ; B a 4 4 : : u > - x p.M.u.v.a.                    z.P x ` w.` K ` ` v v e v v > % o + 5 o @ ; $ . @ 9   ",
"  ! O @ # % % % O # 5 y : $ ; : a a > - u 0.h.0.Y a.                        d.n K P P M n a f N ` v ; : - @ % + @ & o X X X 0   ",
"    @ = * 2 # % & 4 y 1 - % - & v > & w } ^.w.u -.            C.C.            -.v l K v e i a O.j.y 3 : : * % & 5 + . X X . h   ",
"    7 q 1 & 2 f 4 f 4 y * - 3 > > & > L h.OXw.C             C.r.9.z.            -.u n v v u  .N.d t a - o % @ : O o o X X O ~   ",
"    D = o = v 2 % : y s = 1 4 > + > I [ q.p.]               b.4.6.8.              ' v v p f  .N e 5 5 2 @ @ O @ o O o X X =     ",
"    $.@ O & * : * 2 : @ # y ; + - N w.m I V               p.y.T ..L o.              ' r i v y v r * , : % * < o # = = o X 0     ",
"      % @ o @ # & # @ @ & ; + & v u./ t r :.            p.4.7.[ L J P ;.            H.V y e 6 3 : * @ o @ # O O O o O O X ~     ",
"      A # O o o @ O % r & + $ k j.h.K r ;.            a...Y ..Y Y n ` P a.            H.f e y : i 5 X ; * X + O o o O < O       ",
"      *.= < = # @ = : ; + + p +.K p t &.            o.P E L Y 7.P n ` / K l.            l.a y C 5 3 % y % O @ o o O X . 0       ",
"        7 O q # # 5 % X + e ( p 3 ; &.            o.z J U L K o.J n l n v v I.            :.v 5 5 4 5 @ # # @ o o o O O ^       ",
"        ~ # O * % O . + 3  .( e t _                                     A n +.s.            *.r J B : % O O O # o . X <         ",
"          7 O 5 @ X o ; | q.f.t A                                     %.i f y a               #.r & 5 * + o O q = o . ~         ",
"          ! @ o . X ; ] X.XXN.]                                       A a r 1 5 y               h % 5 1 O % * O @ = <           ",
"            8 . o & +.` c B.^.                                      h v y t a 5 : A               0 @ # o * @ = = f %.          ",
"            $.O $  .q.% 1 M.                                      ! i 3 5 i y a 2 # Z               9 @ y * o O *  .            ",
"              ! Q v 1 o y z.                                      j 5 2 5 4 4 4 4 @ @ #.            A.j 9 O o X * z.            ",
"                a.* X y :.            #.- & # * y r : , r f r v f p i y r 5 > @ = @ = * :.            1.8 O O = D               ",
"                H.Q q ;.            -.2 % * ; & 2 y : , r 4 3 ` f 3 f f ; 3 : * @ 2 # O v I.            =.O @ h                 ",
"                  ;.:.              5 = 2 4 5 ; 5 f : 3 5 y M f 3 & y ; & @ * % # q # O t  .'.            =.8                   ",
"                                  5 @ 5 5 & : & j 3 2 5 4 K Q 2 1 * 1 y 2 # = & % = o @ $ v _                                   ",
"                                C 3 r i 5 i ; 3 e t l a a K a a f y N v 5 e 1 3 1 2 & & 1 / a A                                 ",
"                                                                                                                                ",
"                                                                                                                                "
};
